<svg width="1000" height="1000" version="1.1" xmlns="http://www.w3.org/2000/svg" desc="Created with imagetracer.js version 1.2.6" ><path fill="rgb(0,0,0)" stroke="rgb(0,0,0)" stroke-width="1" opacity="0.8117647058823529" d="M 475.5 420 L 542.5 421 L 543.5 420 L 567.5 420 L 568.5 421 L 599.5 422 L 604.5 424 L 613.5 424 L 614.5 425 L 627.5 426 L 632.5 429 L 644.5 432 L 657 442.5 L 660 448.5 L 661 484 L 687.5 475 L 698.5 473 L 713.5 473 L 722.5 475 L 738.5 483 L 749 493.5 L 757 507.5 L 760 521.5 L 760 533.5 L 759 534.5 L 758 545.5 L 754 556.5 Q 746.7 568.7 735.5 577 L 716.5 592 L 673.5 616 L 662.5 623 L 646.5 637 L 636 642 L 626.5 655 L 610 665.5 Q 608.7 681.2 598.5 688 Q 591.6 691.6 579.5 690 L 571.5 688 L 570.5 689 L 552.5 689 L 551.5 688 L 539.5 688 L 538.5 687 L 483.5 687 L 482.5 686 L 467.5 686 L 458.5 688 L 448.5 688 L 436.5 691 L 434.5 693 L 428 693 L 427 684.5 L 418 672.5 L 417 669 L 404.5 666 L 388 652.5 L 376 636.5 L 370 620.5 L 370 616.5 L 364 594.5 L 363 579.5 L 360 567.5 L 360 553.5 L 357 536.5 L 356 484.5 L 357 483.5 L 357 454.5 Q 359.2 447.2 364.5 443 L 379.5 435 L 393.5 433 L 398.5 431 L 420.5 428 L 430.5 425 L 460.5 423 L 475.5 420 Z M 473 424 L 466 426 L 455 426 L 447 428 L 435 428 L 390 438 L 385 438 L 368 447 L 369 451 L 375 460 L 383 465 L 406 472 Q 411 474 409 468 L 418 461 L 446 451 L 458 448 L 469 448 L 486 445 L 493 445 L 494 444 L 501 444 L 502 443 L 550 443 L 551 444 L 565 445 L 576 448 L 597 449 L 608 453 L 614 461 Q 615 465 610 463 L 609 459 L 606 465 L 612 465 L 638 458 L 652 448 Q 654 447 653 444 L 643 435 L 633 433 L 625 429 L 608 428 L 596 425 L 585 425 L 584 424 L 473 424 Z M 525 446 L 524 447 L 512 447 L 511 451 L 507 454 L 504 458 L 524 448 L 525 452 L 525 453 Q 529 449 537 450 L 535 456 L 532 458 L 528 463 L 547 453 L 553 451 L 559 451 L 560 455 L 559 457 L 568 453 L 571 453 L 572 456 L 571 458 L 584 453 L 585 457 L 593 455 L 594 458 L 598 456 L 599 460 L 603 458 Q 607 459 606 456 L 594 452 L 579 452 L 545 446 L 525 446 Z M 498 447 L 497 448 Q 490 446 492 452 L 488 457 L 505 448 L 498 447 Z M 478 450 L 471 452 L 472 455 L 482 451 L 478 450 Z M 654 451 L 639 462 L 617 468 L 599 470 L 586 473 L 572 474 L 541 480 L 523 480 L 522 481 L 505 481 L 504 482 L 483 482 L 482 481 L 458 481 L 457 480 L 424 479 L 395 474 L 377 467 Q 370 463 367 456 L 364 454 L 362 460 L 362 480 L 361 481 L 362 539 L 364 547 L 365 568 L 368 581 L 368 589 L 374 613 L 375 622 L 386 644 L 400 657 L 408 662 L 414 663 L 416 663 L 419 664 L 431 682 L 432 688 L 444 685 L 462 684 L 463 683 L 537 683 L 546 685 L 578 685 L 579 686 L 595 686 L 597 685 L 603 678 L 607 667 L 607 661 L 611 661 L 619 656 L 636 637 L 642 621 L 645 601 L 647 596 L 650 569 L 651 568 L 651 556 L 653 547 L 654 523 L 654 521 L 656 511 L 656 503 L 657 502 L 657 462 L 656 461 L 656 453 L 654 451 Z M 459 452 L 446 456 L 448 459 L 464 453 L 459 452 Z M 550 456 L 541 460 L 515 476 L 515 477 L 526 477 L 527 476 Q 531 478 530 474 L 552 457 L 550 456 Z M 477 458 L 445 476 L 468 477 L 469 478 L 507 478 L 509 477 L 508 475 L 524 461 L 526 458 L 502 472 L 494 474 L 494 470 L 496 470 L 497 468 L 486 474 Q 479 476 481 471 L 492 462 L 494 459 L 467 474 Q 460 476 462 470 L 478 459 L 477 458 Z M 434 460 L 417 467 L 413 473 L 416 474 L 433 475 L 434 476 L 442 476 L 441 473 L 455 464 L 457 461 L 433 472 Q 429 473 428 471 L 428 469 L 436 461 L 434 460 Z M 570 463 L 556 471 L 555 473 L 565 472 L 566 471 L 565 469 L 571 464 L 570 463 Z M 602 464 L 600 466 L 602 466 L 602 464 Z M 586 467 L 585 469 L 587 468 L 586 467 Z M 548 468 L 537 475 L 537 476 L 545 475 Q 544 470 549 469 L 548 468 Z M 575 468 L 572 470 L 575 470 L 575 468 Z M 699 477 L 675 483 L 662 489 L 662 491 L 660 502 L 661 510 L 668 506 L 676 504 L 699 504 L 712 509 Q 724 518 727 536 L 727 550 L 722 561 L 715 568 L 690 584 L 675 590 L 660 594 L 651 593 L 647 610 L 646 620 L 641 635 L 645 634 L 670 614 L 721 585 L 735 573 L 749 558 L 754 547 L 756 537 Q 758 508 745 495 Q 736 484 722 479 L 714 477 L 699 477 Z M 679 508 L 668 511 L 663 514 L 659 518 L 657 527 L 654 574 L 651 589 L 654 590 L 661 590 L 683 583 Q 700 575 715 563 Q 721 558 723 549 L 723 536 L 717 521 Q 708 504 679 508 Z " /><path fill="rgb(0,0,0)" stroke="rgb(0,0,0)" stroke-width="1" opacity="0.8117647058823529" d="M 381.5 505 L 385 506.5 L 384 508.5 L 384 528.5 L 385 529.5 L 385 539.5 L 387 548.5 L 388 572.5 L 390 576.5 L 390 582.5 L 393 598.5 L 396 608.5 L 402 620.5 L 410.5 630 L 416 632.5 L 415 636 L 412.5 636 L 406 631.5 L 398 621.5 Q 391.3 610.2 388 595.5 L 387 583.5 L 384 569.5 L 383 548.5 L 382 547.5 L 381 529.5 L 380 528.5 L 380 506.5 L 381.5 505 Z " /><path fill="rgb(0,0,0)" stroke="rgb(0,0,0)" stroke-width="1" opacity="0" d="M 0 0 L 1000 0 L 1000 1000 L 0 1000 L 0 0 Z M 476 420 L 461 423 L 431 425 L 421 428 L 399 431 L 394 433 L 380 435 L 365 443 Q 359 447 357 455 L 357 484 L 356 485 L 357 537 L 360 554 L 360 568 L 363 580 L 364 595 L 370 617 L 370 621 L 376 637 L 388 653 L 405 666 L 417 669 L 418 673 L 427 685 L 428 693 L 435 693 L 437 691 L 449 688 L 459 688 L 468 686 L 483 686 L 484 687 L 539 687 L 540 688 L 552 688 L 553 689 L 571 689 L 572 688 L 580 690 Q 592 692 599 688 Q 609 681 610 666 L 627 655 L 636 642 L 647 637 L 663 623 L 674 616 L 717 592 L 736 577 Q 747 569 754 557 L 758 546 L 759 535 L 760 534 L 760 522 L 757 508 L 749 494 L 739 483 L 723 475 L 714 473 L 699 473 L 688 475 L 661 484 L 660 449 L 657 443 L 645 432 L 633 429 L 628 426 L 615 425 L 614 424 L 605 424 L 600 422 L 569 421 L 568 420 L 544 420 L 543 421 L 476 420 Z " /><path fill="rgb(0,0,0)" stroke="rgb(0,0,0)" stroke-width="1" opacity="0" d="M 472.5 424 L 583.5 424 L 584.5 425 L 595.5 425 L 607.5 428 L 624.5 429 L 632.5 433 L 642.5 435 L 653 443.5 Q 653.8 447.3 651.5 448 L 637.5 458 L 611.5 465 L 606 465 L 608.5 459 L 610 463 Q 615.2 465.1 614 460.5 L 607.5 453 L 596.5 449 L 575.5 448 L 564.5 445 L 550.5 444 L 549.5 443 L 501.5 443 L 500.5 444 L 493.5 444 L 492.5 445 L 485.5 445 L 468.5 448 L 457.5 448 L 445.5 451 L 417.5 461 L 409 467.5 Q 411.2 473.8 405.5 472 L 382.5 465 L 375 459.5 L 369 450.5 L 368 446.5 L 384.5 438 L 389.5 438 L 434.5 428 L 446.5 428 L 454.5 426 L 465.5 426 L 472.5 424 Z " /><path fill="rgb(0,0,0)" stroke="rgb(0,0,0)" stroke-width="1" opacity="0" d="M 524.5 446 L 544.5 446 L 578.5 452 L 593.5 452 L 606 456 Q 607.3 459.3 602.5 458 L 599 460 L 597.5 456 L 593.5 458 L 593 455 L 585 457 L 583.5 453 Q 574.6 454.1 569.5 459 L 572 455.5 L 570.5 453 Q 562 453.5 557.5 458 L 560 454.5 L 558.5 451 L 552.5 451 L 546.5 453 L 525.5 465 L 531.5 458 L 535 455.5 L 537 450 L 530.5 450 L 523.5 454 L 525 451.5 L 523.5 448 Q 511.1 451.6 502.5 459 L 506.5 454 L 511 450.5 L 511.5 447 L 523.5 447 L 524.5 446 Z " /><path fill="rgb(0,0,0)" stroke="rgb(0,0,0)" stroke-width="1" opacity="0" d="M 497.5 447 L 505 447.5 L 486.5 458 L 492 451.5 Q 490.2 445.8 496.5 448 L 497.5 447 Z " /><path fill="rgb(0,0,0)" stroke="rgb(0,0,0)" stroke-width="1" opacity="0" d="M 477.5 450 L 482 450.5 L 472 455 L 471 451.5 L 477.5 450 Z " /><path fill="rgb(0,0,0)" stroke="rgb(0,0,0)" stroke-width="1" opacity="0" d="M 653.5 451 L 656 452.5 L 656 460.5 L 657 461.5 L 657 501.5 L 656 502.5 L 656 510.5 L 654 520.5 L 654 522.5 L 653 546.5 L 651 555.5 L 651 567.5 L 650 568.5 L 647 595.5 L 645 600.5 L 642 620.5 L 636 636.5 L 618.5 656 L 610.5 661 L 607 661 L 607 666.5 L 603 677.5 L 596.5 685 L 594.5 686 L 578.5 686 L 577.5 685 L 545.5 685 L 536.5 683 L 462.5 683 L 461.5 684 L 443.5 685 L 432 688 L 431 681.5 L 418.5 664 L 415.5 663 L 413.5 663 L 407.5 662 L 399.5 657 L 386 643.5 L 375 621.5 L 374 612.5 L 368 588.5 L 368 580.5 L 365 567.5 L 364 546.5 L 362 538.5 L 361 480.5 L 362 479.5 L 362 459.5 L 364 454 L 367 455.5 Q 370 463 376.5 467 L 394.5 474 L 423.5 479 L 456.5 480 L 457.5 481 L 481.5 481 L 482.5 482 L 503.5 482 L 504.5 481 L 521.5 481 L 522.5 480 L 540.5 480 L 571.5 474 L 585.5 473 L 598.5 470 L 616.5 468 L 638.5 462 L 653.5 451 Z M 382 505 L 380 507 L 380 529 L 381 530 L 382 548 L 383 549 L 384 570 L 387 584 L 388 596 Q 391 610 398 622 L 406 632 L 413 636 L 415 636 L 416 633 L 411 630 L 402 621 L 396 609 L 393 599 L 390 583 L 390 577 L 388 573 L 387 549 L 385 540 L 385 530 L 384 529 L 384 509 L 385 507 L 382 505 Z " /><path fill="rgb(0,0,0)" stroke="rgb(0,0,0)" stroke-width="1" opacity="0" d="M 458.5 452 L 464 452.5 L 447.5 459 L 445.5 456 L 458.5 452 Z " /><path fill="rgb(0,0,0)" stroke="rgb(0,0,0)" stroke-width="1" opacity="0" d="M 552.5 455 L 550.5 458 L 530 473.5 Q 531.3 477.7 526.5 476 L 525.5 477 L 514.5 477 L 514.5 476 L 540.5 460 L 552.5 455 Z " /><path fill="rgb(0,0,0)" stroke="rgb(0,0,0)" stroke-width="1" opacity="0" d="M 527.5 456 L 523.5 461 L 508 474.5 L 509 476.5 L 506.5 478 L 468.5 478 L 467.5 477 L 445 475.5 L 478.5 457 L 476.5 460 L 462 470 Q 459.8 476 466.5 474 L 495.5 457 L 491.5 462 L 481 470.5 Q 479.2 476.2 485.5 474 L 501.5 464 L 499.5 467 L 494 470 Q 491.8 475.6 497.5 474 L 527.5 456 Z " /><path fill="rgb(0,0,0)" stroke="rgb(0,0,0)" stroke-width="1" opacity="0" d="M 484.5 458 L 483.5 460 L 484.5 458 Z " /><path fill="rgb(0,0,0)" stroke="rgb(0,0,0)" stroke-width="1" opacity="0" d="M 459.5 459 L 458.5 461 L 441 472.5 L 442 475.5 L 433.5 476 L 432.5 475 L 415.5 474 L 413 472.5 L 416.5 467 L 435.5 460 L 428 468.5 L 429.5 472 L 437.5 470 L 459.5 459 Z " /><path fill="rgb(0,0,0)" stroke="rgb(0,0,0)" stroke-width="1" opacity="0" d="M 573.5 461 L 572.5 463 L 565 468.5 L 566 470.5 L 564.5 472 L 552.5 474 L 552.5 473 L 573.5 461 Z " /><path fill="rgb(0,0,0)" stroke="rgb(0,0,0)" stroke-width="1" opacity="0" d="M 601.5 464 L 602 466 L 600 465.5 L 601.5 464 Z " /><path fill="rgb(0,0,0)" stroke="rgb(0,0,0)" stroke-width="1" opacity="0" d="M 523.5 465 L 522.5 467 L 523.5 465 Z " /><path fill="rgb(0,0,0)" stroke="rgb(0,0,0)" stroke-width="1" opacity="0" d="M 552.5 465 L 550.5 468 L 545 472.5 Q 546.3 476.7 541.5 475 L 536.5 476 L 536.5 475 L 552.5 465 Z " /><path fill="rgb(0,0,0)" stroke="rgb(0,0,0)" stroke-width="1" opacity="0" d="M 585.5 467 L 587 467.5 L 584.5 469 L 585.5 467 Z " /><path fill="rgb(0,0,0)" stroke="rgb(0,0,0)" stroke-width="1" opacity="0" d="M 574.5 468 L 575 470 L 572 469.5 L 574.5 468 Z " /><path fill="rgb(0,0,0)" stroke="rgb(0,0,0)" stroke-width="1" opacity="0" d="M 698.5 477 L 713.5 477 L 721.5 479 Q 736.4 483.6 745 494.5 Q 758.1 507.9 756 536.5 L 754 546.5 L 749 557.5 L 734.5 573 L 720.5 585 L 669.5 614 L 644.5 634 L 641 635 L 646 619.5 L 647 609.5 L 651 593 L 659.5 594 L 674.5 590 L 689.5 584 L 714.5 568 L 722 560.5 L 727 549.5 L 727 535.5 Q 723.9 517.6 711.5 509 L 698.5 504 L 675.5 504 L 667.5 506 L 660.5 510 L 660 501.5 L 662 490.5 L 661.5 489 L 674.5 483 L 698.5 477 Z " /><path fill="rgb(0,0,0)" stroke="rgb(0,0,0)" stroke-width="1" opacity="0" d="M 678.5 508 Q 707.5 504.5 717 520.5 L 723 535.5 L 723 548.5 Q 720.9 557.9 714.5 563 Q 700.2 574.7 682.5 583 L 660.5 590 L 653.5 590 L 651 589 L 654 573.5 L 657 526.5 L 659 517.5 L 662.5 514 L 667.5 511 L 678.5 508 Z " /></svg>